<?xml version="1.0" standalone="no"?><!DOCTYPE svg PUBLIC "-//W3C//DTD SVG 1.1//EN" "http://www.w3.org/Graphics/SVG/1.1/DTD/svg11.dtd"><svg t="1647921632133" class="icon" viewBox="0 0 1063 1024" version="1.1" xmlns="http://www.w3.org/2000/svg" p-id="1429" xmlns:xlink="http://www.w3.org/1999/xlink" width="207.6171875" height="200"><defs><style type="text/css"></style></defs><path d="M508.928 879.36h-0.452923a200.073846 200.073846 0 0 0-112.777846 65.319385 58.545231 58.545231 0 0 1-64.039385 12.97723l-128.078769-71.34523a51.436308 51.436308 0 0 1-17.171692-63.488 161.929846 161.929846 0 0 0 10.200615-54.212923c0-38.203077-15.202462-74.870154-42.279385-101.888a144.443077 144.443077 0 0 0-102.045538-42.200616h-5.572923a29.262769 29.262769 0 0 1-21.346462-10.200615 62.956308 62.956308 0 0 1-13.922461-31.035077A638.877538 638.877538 0 0 1 0.787692 483.643077c0.925538-33.575385 4.489846-67.052308 10.673231-100.076308 3.721846-19.003077 15.320615-40.763077 35.741539-40.763077h5.100307a144.443077 144.443077 0 0 0 102.203077-42.377846 143.970462 143.970462 0 0 0 42.141539-102.203077 162.402462 162.402462 0 0 0-12.544-55.138461 51.849846 51.849846 0 0 1 18.09723-63.015385L337.230769 5.986462a59.943385 59.943385 0 0 1 63.566769 13.449846 207.064615 207.064615 0 0 0 113.23077 62.542769 207.064615 207.064615 0 0 0 112.777846-61.636923 60.396308 60.396308 0 0 1 64.039384-12.504616l130.402462 72.27077c9.649231 6.852923 16.541538 16.856615 19.495385 28.278154a51.357538 51.357538 0 0 1-2.323693 34.756923 161.476923 161.476923 0 0 0-12.524307 55.138461c0 38.203077 15.202462 74.850462 42.279384 101.888a144.443077 144.443077 0 0 0 102.045539 42.200616h5.572923c16.699077 0 30.621538 16.206769 35.268923 41.235692 6.163692 32.886154 9.728 66.166154 10.673231 99.623384a631.020308 631.020308 0 0 1-11.145847 100.076308c-3.702154 20.381538-16.226462 40.763077-35.24923 40.763077h-4.647385c-14.710154 0-73.767385-8.349538-120.516923 0.472615-14.375385 2.697846-35.170462 13.056-62.424615 31.074462h-66.107077a39.384615 39.384615 0 0 0-39.384616 39.384615v262.675693c-21.838769 7.758769-40.822154 4.667077-57.304615-11.579077-0.925538-0.925538-61.243077-66.717538-116.027077-66.717539z m-232.034462-396.603077c0 127.921231 103.896615 231.640615 232.034462 231.640615 128.157538 0 232.034462-103.719385 232.034462-231.660307 0-127.940923-103.876923-231.660308-232.034462-231.660308-128.137846 0-232.034462 103.719385-232.034462 231.660308z m232.034462-139.027692c76.898462 0 139.224615 62.227692 139.224615 139.027692 0 76.740923-62.326154 138.988308-139.224615 138.988308-76.878769 0-139.224615-62.227692-139.224615-139.008 0-76.760615 62.345846-138.988308 139.224615-138.988308zM758.153846 807.384615h256a49.230769 49.230769 0 1 1 0 98.461539h-256a49.230769 49.230769 0 1 1 0-98.461539z m0 118.153847h256a49.230769 49.230769 0 1 1 0 98.461538h-256a49.230769 49.230769 0 1 1 0-98.461538z m0-236.307693h256a49.230769 49.230769 0 1 1 0 98.461539h-256a49.230769 49.230769 0 1 1 0-98.461539z" fill="#979797" p-id="1430"></path></svg>